<?xml version="1.0" encoding="utf-8"?>
<!-- Generator: Adobe Illustrator 27.2.0, SVG Export Plug-In . SVG Version: 6.00 Build 0)  -->
<svg version="1.1" id="Capa_1" xmlns="http://www.w3.org/2000/svg" xmlns:xlink="http://www.w3.org/1999/xlink" x="0px" y="0px"
	 viewBox="0 0 100 100" style="enable-background:new 0 0 100 100;" xml:space="preserve">
<style type="text/css">
	.st0{fill:#008A4D;}
	.st1{fill:#FFFFFF;}
</style>
<rect x="-2" y="-1" class="st0" width="104" height="102"/>
<polyline class="st1" points="15.1,15.3 15.3,72.9 23.1,72.9 23.4,26.5 74.6,26.7 74.8,72.9 82.3,72.9 82.3,15.3 "/>
<g>
	<g>
		<g>
			<path d="M82,14H15.9c-0.8,0-1.4,0.9-1.4,2v56.6c0,1.1,0.6,2,1.4,2h6.9c0.5,0,0.9-0.4,1.2-1l10-14.3c0.3-0.4,0.4-0.9,0.4-1.4l0,0
				V47.2h5.1v8.7h-1.8c-0.8,0-1.4,0.9-1.4,2s0.6,2,1.4,2h26.7l9.3,13.4c0.2,0.8,0.7,1.3,1.3,1.3h7c0.8,0,1.4-0.9,1.4-2V16
				C83.3,14.9,82.7,14,82,14z M24.2,67.7v-7l0,0l2.5-3.6V64c0,0.1,0,0.1,0,0.2L24.2,67.7z M31.7,57l-2.2,3.2v-7l2.2-3.2V57z
				 M31.7,44.4l-2.2,3.2c0-1.1-0.6-1.9-1.4-1.9s-1.4,0.9-1.4,2v3.9l-2.5,3.6v-7.4L31.7,37V44.4z M31.7,31.4l-7.4,10.7v-7.4l2.5-3.6
				v0.8c0,1.1,0.6,2,1.4,2s1.4-0.9,1.4-2v-3.7c0-0.1,0-0.1,0-0.2h2.2v3.4H31.7z M24.2,29.1v-1.2h0.9L24.2,29.1z M39.5,43.3h-5.1
				v-9.1h5.1V43.3z M39.5,30.3h-5.1v-2.4h5.1V30.3z M55.6,55.9h-5.3v-4.5c0-1.1-0.6-2-1.4-2c-0.8,0-1.4,0.9-1.4,2v4.5h-5.3v-8.7
				h13.4V55.9z M55.6,43.3H42.2v-9.1h5.3v4.3c0,1.1,0.6,2,1.4,2c0.8,0,1.4-0.9,1.4-2v-4.3h5.3C55.6,34.2,55.6,43.3,55.6,43.3z
				 M42.2,30.3v-2.4h5.3v2.4H42.2z M55.6,30.3h-5.3v-2.4h5.3V30.3z M63.6,55.9h-5.2v-8.7h5.2V55.9z M63.6,43.3h-5.2v-9.1h5.2V43.3z
				 M63.6,30.3h-5.2v-2.4h5.2V30.3z M68.5,60.2L66.3,57v-7l2.2,3.2V60.2z M68.5,28.1v19.5l-2.2-3.2v-7.9c0.4,0.1,0.9-0.1,1.2-0.5
				c0.5-0.8,0.5-2,0-2.8l-1.2-1.8v-3.5h2.2C68.5,28,68.5,28,68.5,28.1z M73.7,67.5l-2.4-3.4c0-0.1,0-0.1,0-0.2V57l2.4,3.4V67.5
				L73.7,67.5z M73.7,42.2c-0.5-0.2-1-0.1-1.4,0.5c-0.5,0.8-0.5,2,0,2.8l1.4,2v7.4l-2.4-3.4V31.1l2.4,3.4V42.2z M73.7,28.9l-0.7-1
				h0.7V28.9z M80.6,70.6h-4.2V25.9c0-1.1-0.6-2-1.4-2H22.8c-0.8,0-1.4,0.9-1.4,2v44.7c-1.4,0-2.8,0-4.2,0c0-17.6,0-35.1,0-52.7
				h63.3L80.6,70.6L80.6,70.6z"/>
			<path d="M61.5,74c-2.9,0-5.3,3.4-5.3,7.7s2.4,7.7,5.3,7.7c2.9,0,5.3-3.4,5.3-7.7S64.5,74,61.5,74z M61.5,85.4
				c-1.4,0-2.6-1.7-2.6-3.7c0-2.1,1.2-3.7,2.6-3.7s2.6,1.7,2.6,3.7C64.2,83.7,63,85.4,61.5,85.4z"/>
		</g>
	</g>
</g>
<ellipse class="st1" cx="61.5" cy="81.7" rx="3.4" ry="4.6"/>
</svg>
